PathFileType	4	(X/Y/Z)	/Users/itak/Documents/Research/Walk-IL/dataset/trc/00004_00004.trc
DataRate	CameraRate	NumFrames	NumMarkers	Units	OrigDataRate	OrigDataStartFrame	OrigNumFrames
100.000000	100.000000	4	53	mm	100.000000	495	566
Frame#	Time	RPSI			LPSI			L3			STRN			T10			C7			CLAV			RBAK			LBAK			LSHO			LUPA			LAEL			LAOL			LWTS			LWPS			LFRA			LIFD			LHPS			LHTS			RSHO			RUPA			RAEL			RAOL			RWTS			RWPS			RFRA			RIFD			RHTS			RHPS			RBHD			LFHD			RFHD			LBHD			LHIP			RHIP			RASI			LASI			LKNE			LTHI			LANK			LTIP			LTOE			LMT1			LMT5			LHEE			RKNE			RTHI			RANK			RTIP			RTOE			RMT1			RMT5			RHEE			
		X1	Y1	Z1	X2	Y2	Z2	X3	Y3	Z3	X4	Y4	Z4	X5	Y5	Z5	X6	Y6	Z6	X7	Y7	Z7	X8	Y8	Z8	X9	Y9	Z9	X10	Y10	Z10	X11	Y11	Z11	X12	Y12	Z12	X13	Y13	Z13	X14	Y14	Z14	X15	Y15	Z15	X16	Y16	Z16	X17	Y17	Z17	X18	Y18	Z18	X19	Y19	Z19	X20	Y20	Z20	X21	Y21	Z21	X22	Y22	Z22	X23	Y23	Z23	X24	Y24	Z24	X25	Y25	Z25	X26	Y26	Z26	X27	Y27	Z27	X28	Y28	Z28	X29	Y29	Z29	X30	Y30	Z30	X31	Y31	Z31	X32	Y32	Z32	X33	Y33	Z33	X34	Y34	Z34	X35	Y35	Z35	X36	Y36	Z36	X37	Y37	Z37	X38	Y38	Z38	X39	Y39	Z39	X40	Y40	Z40	X41	Y41	Z41	X42	Y42	Z42	X43	Y43	Z43	X44	Y44	Z44	X45	Y45	Z45	X46	Y46	Z46	X47	Y47	Z47	X48	Y48	Z48	X49	Y49	Z49	X50	Y50	Z50	X51	Y51	Z51	X52	Y52	Z52	X53	Y53	Z53	

496	4.95	1114.639892578125	1051.881958007812	-166.8245697021484	1094.685791015625	1049.722778320312	-329.7938232421875	1096.4423828125	1116.0263671875	-253.3650360107422	1315.928833007812	1311.87744140625	-272.5551147460938	1070.043579101562	1258.635009765625	-248.2804412841797	1109.87890625	1527.009887695312	-264.4297790527344	1270.744262695312	1437.047119140625	-274.0927124023438	1069.4873046875	1390.26708984375	-177.9366912841797	1084.739501953125	1485.9814453125	-360.3854064941406	1181.10400390625	1491.555053710938	-442.7235412597656	1141.41748046875	1367.152221679688	-515.643310546875	1129.160400390625	1150.423461914062	-540.3711547851562	1083.545654296875	1139.815795898438	-445.2721557617188	1204.545654296875	891.7571411132812	-495.3634643554688	1122.5224609375	882.8388061523438	-529.3429565429688	1133.794921875	1033.904174804688	-547.7830200195312	1220.939819335938	707.4697875976562	-482.1681518554688	1148.132446289062	790.7044067382812	-530.8853759765625	1216.12158203125	796.1213989257812	-510.4458923339844	1205.06640625	1517.3046875	-99.1868896484375	1205.966674804688	1445.92578125	-23.7116641998291	1219.340209960938	1175.043212890625	13.05445194244385	1200.412841796875	1141.690307617188	-79.48564910888672	1435.409423828125	1004.614318847656	-80.98808288574219	1407.913330078125	959.788330078125	-4.383926868438721	1265.430908203125	1106.355834960938	19.33642768859863	1537.765380859375	854.52978515625	-126.1676788330078	1519.883911132812	925.548095703125	-89.63666534423828	1490.005249023438	893.9180297851562	-30.03430557250977	1174.50537109375	1718.52783203125	-323.7083740234375	1364.516845703125	1707.0400390625	-216.0132598876953	1356.729125976562	1712.127319335938	-314.2135620117188	1192.8974609375	1705.716796875	-181.111328125	1182.79541015625	956.8870239257812	-452.1453552246094	1241.989990234375	945.2138061523438	-79.63509368896484	1334.35546875	981.3905639648438	-164.6012115478516	1302.525390625	1004.878967285156	-397.2459106445312	1303.290283203125	518.6085205078125	-422.4725952148438	1253.301879882812	651.6306762695312	-454.4056091308594	1164.89013671875	35.76549530029297	-438.8847961425781	1206.559814453125	284.7880554199219	-448.2110290527344	1383.330200195312	25.0679931640625	-371.1387939453125	1323.342895507812	36.82128524780273	-354.8198852539062	1289.275756835938	25.24862098693848	-456.0523681640625	1095.615356445312	47.62951278686523	-387.6901245117188	1244.400634765625	509.7416076660156	-143.0875244140625	1264.5341796875	778.2870483398438	-93.00679016113281	1108.428955078125	33.5884895324707	-179.3363952636719	1216.346069335938	385.3230285644531	-146.8213958740234	1334.887084960938	26.44904136657715	-239.5408935546875	1269.6748046875	33.73716735839844	-263.8335571289062	1257.711791992188	27.24769973754883	-166.5611114501953	1050.022094726562	38.54265213012695	-218.0892028808594	
497	4.96	1116.478881835938	1051.775634765625	-168.1849975585938	1097.399536132812	1049.519409179688	-331.2730712890625	1098.591552734375	1115.60400390625	-254.9445190429688	1317.75244140625	1311.790161132812	-272.6927795410156	1071.953369140625	1258.117065429688	-250.0327301025391	1111.304077148438	1526.617553710938	-265.8028259277344	1272.362060546875	1436.905639648438	-274.4503479003906	1070.493774414062	1389.78271484375	-179.6944427490234	1086.7490234375	1485.469116210938	-361.8966979980469	1183.62890625	1491.328369140625	-443.6696472167969	1144.962524414062	1366.795776367188	-516.98193359375	1134.140258789062	1149.94384765625	-541.7986450195312	1087.86767578125	1139.043090820312	-447.1192016601562	1211.325439453125	891.9769897460938	-496.1656188964844	1129.643310546875	882.3518676757812	-530.7981567382812	1139.744384765625	1033.478393554688	-549.1578979492188	1229.31494140625	707.8642578125	-482.8567199707031	1156.129760742188	790.4835205078125	-532.1522216796875	1223.845825195312	796.3898315429688	-511.1269226074219	1205.451171875	1516.9140625	-99.89682769775391	1205.887329101562	1445.429809570312	-24.5149097442627	1218.850341796875	1174.416625976562	11.68712329864502	1200.510009765625	1141.426391601562	-81.03724670410156	1434.843627929688	1003.4150390625	-81.56971740722656	1406.777221679688	958.4837646484375	-5.328722953796387	1264.718017578125	1105.609497070312	18.06360054016113	1536.921264648438	853.1317749023438	-126.6178436279297	1519.1025390625	924.0269165039062	-89.8662109375	1488.88427734375	892.3939208984375	-30.48998069763184	1176.144775390625	1718.379760742188	-324.656005859375	1365.765991210938	1706.841064453125	-216.2427215576172	1358.320190429688	1711.92138671875	-314.47021484375	1194.015502929688	1705.528930664062	-181.9651794433594	1186.144897460938	956.4597778320312	-452.89697265625	1243.23388671875	945.1339111328125	-80.39618682861328	1336.053955078125	981.1493530273438	-164.5588684082031	1305.611206054688	1004.534851074219	-397.5032043457031	1303.432861328125	517.7858276367188	-422.6069030761719	1254.7412109375	651.0923461914062	-454.5087585449219	1164.544677734375	35.38463592529297	-439.2457275390625	1206.527221679688	284.1822814941406	-448.5244445800781	1383.411010742188	24.07739639282227	-371.1067810058594	1323.14794921875	36.14086151123047	-355.1991882324219	1288.97509765625	24.65776252746582	-456.4545288085938	1095.265747070312	47.24553680419922	-388.1658020019531	1245.5419921875	509.6210632324219	-143.4199523925781	1265.75732421875	778.2311401367188	-93.29803466796875	1108.380737304688	33.78182601928711	-179.42333984375	1217.273559570312	385.2366027832031	-147.1639251708984	1334.926391601562	26.46261215209961	-239.5270385742188	1269.6982421875	33.73226547241211	-263.8578796386719	1257.706665039062	27.22448539733887	-166.586181640625	1050.040649414062	38.72551345825195	-218.1697845458984	
498	4.97	1118.245727539062	1051.7060546875	-169.5807800292969	1100.026611328125	1049.374145507812	-332.7816772460938	1100.684692382812	1115.213989257812	-256.5477294921875	1319.528686523438	1311.720581054688	-272.8832702636719	1073.7919921875	1257.626098632812	-251.8103485107422	1112.681884765625	1526.256591796875	-267.2235717773438	1273.938842773438	1436.771728515625	-274.8407287597656	1071.454467773438	1389.318969726562	-181.4777679443359	1088.730834960938	1484.986450195312	-363.4403686523438	1186.109375	1491.123657226562	-444.638671875	1148.466552734375	1366.4814453125	-518.3524780273438	1139.083251953125	1149.510009765625	-543.2540283203125	1092.187866210938	1138.29638671875	-448.9894409179688	1218.164428710938	892.306884765625	-497.0342407226562	1136.820556640625	881.9312133789062	-532.2774658203125	1145.687866210938	1033.103149414062	-550.5636596679688	1237.776000976562	708.2398071289062	-483.5572814941406	1164.218017578125	790.3463745117188	-533.4611206054688	1231.660888671875	796.7816162109375	-511.8849487304688	1205.81396484375	1516.535278320312	-100.6393127441406	1205.765747070312	1444.938720703125	-25.36701965332031	1218.178100585938	1173.793823242188	10.26831436157227	1200.46826171875	1141.174072265625	-82.65000915527344	1433.944213867188	1001.978454589844	-82.07248687744141	1405.207397460938	956.958740234375	-6.223546981811523	1263.718017578125	1104.826904296875	16.74734878540039	1535.611206054688	851.3839111328125	-126.9036712646484	1517.904907226562	922.1577758789062	-89.94635009765625	1487.271484375	890.5717163085938	-30.81179428100586	1177.702758789062	1718.23486328125	-325.6502380371094	1366.940185546875	1706.703979492188	-216.5282897949219	1359.830078125	1711.763305664062	-314.7768249511719	1195.062255859375	1705.360473632812	-182.8684234619141	1189.4169921875	956.0830688476562	-453.6815490722656	1244.4384765625	945.0887451171875	-81.16771697998047	1337.70263671875	980.946044921875	-164.5800628662109	1308.632202148438	1004.231567382812	-397.8140563964844	1303.320922851562	516.972900390625	-422.7592163085938	1255.978515625	650.5675048828125	-454.6177062988281	1164.18603515625	34.97258377075195	-439.5193176269531	1206.3359375	283.5537109375	-448.7910461425781	1383.49658203125	23.39177513122559	-371.0242614746094	1322.920776367188	35.59700012207031	-355.5126037597656	1288.671997070312	24.18924331665039	-456.8167724609375	1094.911376953125	46.73457717895508	-388.5052185058594	1246.638427734375	509.4960021972656	-143.7930450439453	1266.844604492188	778.1943359375	-93.65276336669922	1108.343017578125	33.97451782226562	-179.5115661621094	1218.157592773438	385.1339111328125	-147.5523986816406	1334.970581054688	26.47551345825195	-239.5090637207031	1269.725708007812	33.72480392456055	-263.8869018554688	1257.706665039062	27.21306610107422	-166.619140625	1050.067993164062	38.90693664550781	-218.2547607421875	
499	4.98	1119.937377929688	1051.6708984375	-171.0069122314453	1102.580322265625	1049.283203125	-334.3085632324219	1102.739379882812	1114.872924804688	-258.1618957519531	1321.259643554688	1311.672485351562	-273.1257019042969	1075.577514648438	1257.176147460938	-253.6009826660156	1114.019409179688	1525.940795898438	-268.6953125	1275.479125976562	1436.647827148438	-275.2636108398438	1072.375366210938	1388.880249023438	-183.2763366699219	1090.6904296875	1484.54052734375	-365.0103759765625	1188.5478515625	1490.943115234375	-445.6246948242188	1151.927490234375	1366.212158203125	-519.74560546875	1143.9833984375	1149.133056640625	-544.7312622070312	1096.485229492188	1137.582641601562	-450.8779602050781	1225.046508789062	892.7526245117188	-497.9578857421875	1144.039672851562	881.5834350585938	-533.7697143554688	1151.614868164062	1032.786987304688	-551.9937744140625	1246.311767578125	708.5931396484375	-484.2537231445312	1172.37451171875	790.29541015625	-534.80029296875	1239.549682617188	797.3244018554688	-512.7117309570312	1206.166381835938	1516.177490234375	-101.4119644165039	1205.617065429688	1444.460693359375	-26.26532745361328	1217.3408203125	1173.1845703125	8.801907539367676	1200.282348632812	1140.923950195312	-84.31658172607422	1432.724609375	1000.318237304688	-82.50324249267578	1403.231811523438	955.2462768554688	-7.054355621337891	1262.454833984375	1104.019409179688	15.39380168914795	1533.831787109375	849.2825317382812	-127.0239334106445	1516.299560546875	919.963623046875	-89.89537048339844	1485.174560546875	888.4888916015625	-31.01165580749512	1179.186645507812	1718.09228515625	-326.6841430664062	1368.048583984375	1706.6328125	-216.8699951171875	1361.2666015625	1711.655151367188	-315.1330871582031	1196.046264648438	1705.215087890625	-183.8182067871094	1192.609375	955.7666625976562	-454.5014953613281	1245.60693359375	945.0808715820312	-81.94641876220703	1339.306518554688	980.797119140625	-164.6755828857422	1311.58203125	1003.979614257812	-398.1793212890625	1302.975708007812	516.1707763671875	-422.93896484375	1257.023559570312	650.0615234375	-454.7686462402344	1163.86279296875	34.54241943359375	-439.6809997558594	1205.998413085938	282.9195861816406	-449.0002136230469	1383.59814453125	22.94084930419922	-370.9205932617188	1322.69921875	35.1434211730957	-355.732666015625	1288.40234375	23.8331356048584	-457.1158142089844	1094.588623046875	46.12726593017578	-388.6880187988281	1247.671630859375	509.3773498535156	-144.2003479003906	1267.791259765625	778.1626586914062	-94.092529296875	1108.318115234375	34.16108703613281	-179.6024322509766	1218.982299804688	385.029296875	-147.9894561767578	1335.01953125	26.48614501953125	-239.4860382080078	1269.757446289062	33.71524429321289	-263.9207153320312	1257.709594726562	27.20883369445801	-166.6572113037109	1050.099243164062	39.08190536499023	-218.3485717773438	
